# xmcd CD database generated by RipIT
#
# Track frame offsets:
# 183
# 21583
# 43700
# 65863
# 91535
# 110333
# 130798
# 150773
# 172603
# 190770
# 213208
# 232738
# 249028
#
# Disc length: 3566 seconds
#
# Revision: 96
# Processed by: cddbd v1.5.2PL0 Copyright (c) Steve Scherf et al.
# Submitted via: RipIT 4.0.0-beta20140508 www.suwald.com/ripit/ripit.html on 2020-02-06 at 11:13
#
DISCID=900dec0d
DTITLE=Ugly Kid Joe - America's Least Wanted
DYEAR=1992
DGENRE=Heavy Metal
TTITLE0=Neighbor
TTITLE1=Goddamn Devil
TTITLE2=Come Tomorrow
TTITLE3=Panhandlin' Prince
TTITLE4=Busy Bee
TTITLE5=Don't Go
TTITLE6=So Damn Cool
TTITLE7=Same Side
TTITLE8=Cats in the Cradle
TTITLE9=I'll Keep Tryin'
TTITLE10=Everything About You
TTITLE11=Madman ['92 Remix]
TTITLE12=Mr. Recordman
EXTD=YEAR: 1992\n
EXTT0=
EXTT1=
EXTT2=
EXTT3=
EXTT4=
EXTT5=
EXTT6=
EXTT7=
EXTT8=
EXTT9=
EXTT10=
EXTT11=
EXTT12=
PLAYORDER=
